<svg width="196" height="97" viewBox="0 0 196 97" fill="none" xmlns="http://www.w3.org/2000/svg">
<g clip-path="url(#clip0_19_2)">
<path d="M23.688 0C36.788 0 47.393 10.606 47.393 23.682C47.393 36.759 36.788 47.364 23.688 47.364C10.606 47.364 0 36.759 0 23.682C0 10.606 10.606 0 23.688 0Z" fill="#141414"/>
<path d="M32.448 38.835L29.67 31.172H17.542L14.897 38.835H9.416L20.883 8.526H26.466L37.978 38.835H32.448ZM23.658 13.079H23.529C23.422 13.926 23.291 14.656 23.079 15.253L18.942 26.932H28.235L24.072 15.253C23.94 14.887 23.789 14.163 23.658 13.079Z" fill="#B3B3B3"/>
<path d="M73.084 0C86.181 0 96.787 10.61 96.787 23.687C96.787 36.764 86.181 47.369 73.084 47.369C59.999 47.369 49.394 36.763 49.394 23.686C49.394 10.609 59.999 0 73.084 0Z" fill="#141414"/>
<path d="M83.288 30.01C83.288 32.638 82.303 34.793 80.363 36.395C78.406 38.028 75.893 38.832 72.797 38.832H62.889V8.53H72.461C75.359 8.53 77.655 9.176 79.328 10.414C81.012 11.68 81.851 13.366 81.851 15.503C81.851 17.149 81.347 18.599 80.351 19.851C79.337 21.131 78.029 22.001 76.395 22.521V22.612C78.559 22.886 80.237 23.687 81.464 24.984C82.663 26.311 83.288 27.967 83.288 30.01ZM76.519 16.471C76.519 15.266 76.065 14.327 75.187 13.676C74.28 13.027 72.963 12.703 71.208 12.703H67.931V21.086H71.163C72.856 21.086 74.184 20.686 75.118 19.885C76.044 19.084 76.519 17.965 76.519 16.471ZM77.953 29.873C77.953 28.424 77.445 27.288 76.395 26.464C75.344 25.65 73.8 25.258 71.721 25.258H67.931V34.671H72.17C73.971 34.671 75.382 34.233 76.407 33.363C77.451 32.508 77.953 31.337 77.953 29.873Z" fill="#B3B3B3"/>
<path d="M171.869 0C184.969 0 195.574 10.614 195.574 23.69C195.574 36.767 184.969 47.372 171.869 47.372C158.787 47.372 148.181 36.767 148.181 23.69C148.181 10.614 158.787 0 171.869 0Z" fill="#141414"/>
<path d="M174.266 27.847V38.834H169.269V27.97L159.422 8.534H165.143L171.238 21.18C171.451 21.591 171.577 21.963 171.676 22.301C171.775 22.637 171.852 22.911 171.932 23.126H171.977C172.128 22.484 172.35 21.851 172.672 21.223L178.995 8.534H184.314L174.266 27.847Z" fill="#B3B3B3"/>
<path d="M122.47 0C135.575 0 146.181 10.61 146.181 23.687C146.181 36.764 135.576 47.37 122.47 47.37C109.394 47.37 98.787 36.764 98.787 23.687C98.787 10.61 109.394 0 122.47 0Z" fill="#141414"/>
<path d="M129.59 38.831L123.184 27.812C123.052 27.524 122.942 27.28 122.875 27.049C122.826 26.791 122.754 26.547 122.663 26.286H122.571C122.455 26.561 122.381 26.809 122.304 27.061C122.227 27.283 122.117 27.523 121.968 27.811L115.445 38.83H109.322L119.459 23.641L110.2 8.53H116.386L121.787 18.484C122.306 19.369 122.648 20.124 122.835 20.75H122.908C123.213 19.957 123.445 19.439 123.565 19.19C123.674 18.953 125.774 15.393 129.835 8.53H135.509L126.05 23.55L135.631 38.831H129.59Z" fill="#B3B3B3"/>
<path d="M23.688 49.376C36.788 49.376 47.393 59.982 47.393 73.058C47.393 86.135 36.788 96.74 23.688 96.74C10.606 96.74 0 86.135 0 73.058C0 59.982 10.606 49.376 23.688 49.376Z" fill="white"/>
<path d="M32.448 88.211L29.67 80.548H17.542L14.897 88.211H9.416L20.883 57.902H26.466L37.978 88.211H32.448ZM23.658 62.455H23.529C23.422 63.302 23.291 64.032 23.079 64.629L18.942 76.308H28.235L24.072 64.629C23.94 64.263 23.789 63.539 23.658 62.455Z" fill="#B3B3B3"/>
<path d="M73.084 49.374C86.181 49.374 96.787 59.984 96.787 73.061C96.787 86.138 86.181 96.743 73.084 96.743C59.999 96.743 49.394 86.137 49.394 73.06C49.394 59.983 59.999 49.374 73.084 49.374Z" fill="white"/>
<path d="M83.288 79.383C83.288 82.011 82.303 84.166 80.363 85.768C78.406 87.401 75.893 88.205 72.797 88.205H62.889V57.904H72.461C75.359 57.904 77.655 58.55 79.328 59.788C81.012 61.054 81.851 62.74 81.851 64.877C81.851 66.523 81.347 67.973 80.351 69.225C79.337 70.505 78.029 71.375 76.395 71.895V71.986C78.559 72.26 80.237 73.061 81.464 74.358C82.663 75.684 83.288 77.34 83.288 79.383ZM76.519 65.844C76.519 64.639 76.065 63.7 75.187 63.049C74.28 62.4 72.963 62.076 71.208 62.076H67.931V70.459H71.163C72.856 70.459 74.184 70.059 75.118 69.258C76.044 68.458 76.519 67.338 76.519 65.844ZM77.953 79.247C77.953 77.798 77.445 76.662 76.395 75.838C75.344 75.024 73.8 74.632 71.721 74.632H67.931V84.045H72.17C73.971 84.045 75.382 83.607 76.407 82.737C77.451 81.881 77.953 80.71 77.953 79.247Z" fill="#B3B3B3"/>
<path d="M171.869 49.372C184.969 49.372 195.574 59.986 195.574 73.062C195.574 86.139 184.969 96.744 171.869 96.744C158.787 96.744 148.181 86.139 148.181 73.062C148.181 59.986 158.787 49.372 171.869 49.372Z" fill="white"/>
<path d="M174.266 77.219V88.206H169.269V77.342L159.422 57.906H165.143L171.238 70.552C171.451 70.963 171.577 71.335 171.676 71.673C171.775 72.009 171.852 72.283 171.932 72.498H171.977C172.128 71.856 172.35 71.223 172.672 70.595L178.995 57.906H184.314L174.266 77.219Z" fill="#B3B3B3"/>
<path d="M122.47 49.374C135.575 49.374 146.181 59.984 146.181 73.061C146.181 86.138 135.576 96.744 122.47 96.744C109.394 96.744 98.787 86.138 98.787 73.061C98.787 59.984 109.394 49.374 122.47 49.374Z" fill="white"/>
<path d="M129.59 88.205L123.184 77.186C123.052 76.898 122.942 76.654 122.875 76.423C122.826 76.165 122.754 75.921 122.663 75.66H122.571C122.455 75.935 122.381 76.183 122.304 76.435C122.227 76.657 122.117 76.897 121.968 77.185L115.445 88.204H109.322L119.459 73.015L110.199 57.904H116.385L121.786 67.858C122.305 68.743 122.647 69.498 122.834 70.124H122.907C123.212 69.331 123.444 68.813 123.564 68.564C123.673 68.327 125.773 64.767 129.834 57.904H135.508L126.049 72.924L135.63 88.205H129.59Z" fill="#B3B3B3"/>
</g>
<defs>
<clipPath id="clip0_19_2">
<rect width="195.574" height="96.744" fill="white"/>
</clipPath>
</defs>
</svg>
