<svg width="45" height="45" viewBox="0 0 45 45" fill="none" xmlns="http://www.w3.org/2000/svg">
<g clip-path="url(#clip0_22_2)">
<path d="M17.374 27.635H8.836V36.164H17.374V27.635Z" fill="#1A1A1A"/>
<path d="M16.875 28.135V35.664H9.336V28.135H16.875ZM17.875 27.135H8.336V36.664H17.874L17.875 27.135Z" fill="#760A0A"/>
<path d="M17.374 8.836H8.836V17.374H17.374V8.836Z" fill="#D51212"/>
<path d="M16.875 9.336V16.874H9.336V9.336H16.875ZM17.875 8.336H8.336V17.874H17.874L17.875 8.336Z" fill="#760A0A"/>
<path d="M36.163 8.836H27.625V17.374H36.163V8.836Z" fill="#1A1A1A"/>
<path d="M35.664 9.336V16.874H28.126V9.336H35.664ZM36.664 8.336H27.126V17.874H36.664V8.336Z" fill="#760A0A"/>
<path d="M36.163 27.635H27.625V36.164H36.163V27.635Z" fill="#1A1A1A"/>
<path d="M35.664 28.135V35.664H28.126V28.135H35.664ZM36.664 27.135H27.126V36.664H36.664V27.135Z" fill="#760A0A"/>
</g>
<defs>
<clipPath id="clip0_22_2">
<rect width="45" height="45" fill="white"/>
</clipPath>
</defs>
</svg>
